<?xml version="1.0" encoding="utf-8"?><svg xmlns="http://www.w3.org/2000/svg" xmlns:xlink="http://www.w3.org/1999/xlink" width="952" height="938" preserveAspectRatio="xMidYMid" viewBox="0 0 952 938" style="z-index:1;margin-right:-2px;display:block;background-repeat-y:initial;background-repeat-x:initial;background-color:rgb(255, 255, 255);animation-play-state:paused" ><g transform="" style="animation-play-state:paused" ><defs style="animation-play-state:paused" ><linearGradient id="ldbk-photon-frjq39ay3as-lg" x1="451" x2="952" y1="0" y2="0" gradientUnits="userSpaceOnUse" style="animation-play-state:paused" ><stop stop-color="#1d3f72" offset="0" style="animation-play-state:paused" ></stop>

    
<stop stop-color="#34ffef" offset="1" style="animation-play-state:paused" ></stop></linearGradient>

  
<mask id="ldbk-photon-frjq39ay3as-mask" style="animation-play-state:paused" ><g style="animation-play-state:paused" ><path d="M1252 -0.5 L460.73104949766315 -0.5 A15.5 15.5 0 0 1 460.73104949766315 31.5 L1252 31.5" fill="#fff" transform="matrix(1,0,0,1,41.32573318481445,0)" style="transform:matrix(1, 0, 0, 1, 41.3257, 0);animation-play-state:paused" ></path>
<path d="M998.3437527196542 -0.5 L1013.6875054393083 -0.5 A15.5 15.5 0 0 1 1013.6875054393083 31.5 L998.3437527196542 31.5 A15.5 15.5 0 0 1 998.3437527196542 -0.5" fill="#000" transform="matrix(1,0,0,1,0,0)" opacity="1" style="transform:matrix(1, 0, 0, 1, 0, 0);animation-play-state:paused" ></path>
<path d="M1252 30.5 L421.7496073007019 30.5 A15.5 15.5 0 0 0 421.7496073007019 62.5 L1252 62.5" fill="#fff" transform="matrix(1,0,0,1,-31.167428970336914,0)" style="transform:matrix(1, 0, 0, 1, -31.1674, 0);animation-play-state:paused" ></path>
<path d="M520.599145103449 30.5 L540.585751974468 30.5 A15.5 15.5 0 0 1 540.585751974468 62.5 L520.599145103449 62.5 A15.5 15.5 0 0 1 520.599145103449 30.5" fill="#fff" transform="matrix(1,0,0,1,0,0)" opacity="1" style="transform:matrix(1, 0, 0, 1, 0, 0);animation-play-state:paused" ></path>
<path d="M1252 61.5 L475.7684868945241 61.5 A15.5 15.5 0 0 1 475.7684868945241 93.5 L1252 93.5" fill="#fff" transform="matrix(1,0,0,1,27.24544906616211,0)" style="transform:matrix(1, 0, 0, 1, 27.2454, 0);animation-play-state:paused" ></path>
<path d="M1003.9575866263505 61.5 L1024.915173252701 61.5 A15.5 15.5 0 0 1 1024.915173252701 93.5 L1003.9575866263505 93.5 A15.5 15.5 0 0 1 1003.9575866263505 61.5" fill="#000" transform="matrix(1,0,0,1,-672.0948486328125,0)" opacity="0.599078" style="transform:matrix(1, 0, 0, 1, -672.095, 0);opacity:0.599078;animation-play-state:paused" ></path>
<path d="M1252 92.5 L439.0528627924499 92.5 A15.5 15.5 0 0 0 439.0528627924499 124.5 L1252 124.5" fill="#fff" transform="matrix(1,0,0,1,-12.543994903564453,0)" style="transform:matrix(1, 0, 0, 1, -12.544, 0);animation-play-state:paused" ></path>
<path d="M491.01391318518483 92.5 L516.8107603322333 92.5 A15.5 15.5 0 0 1 516.8107603322333 124.5 L491.01391318518483 124.5 A15.5 15.5 0 0 1 491.01391318518483 92.5" fill="#fff" transform="matrix(1,0,0,1,0,0)" opacity="1" style="transform:matrix(1, 0, 0, 1, 0, 0);animation-play-state:paused" ></path>
<path d="M1252 123.5 L465.6769987893288 123.5 A15.5 15.5 0 0 1 465.6769987893288 155.5 L1252 155.5" fill="#fff" transform="matrix(1,0,0,1,20.890016555786133,0)" style="transform:matrix(1, 0, 0, 1, 20.89, 0);animation-play-state:paused" ></path>
<path d="M1010.826735453532 123.5 L1038.653470907064 123.5 A15.5 15.5 0 0 1 1038.653470907064 155.5 L1010.826735453532 155.5 A15.5 15.5 0 0 1 1010.826735453532 123.5" fill="#000" transform="matrix(1,0,0,1,-191.31423950195312,0)" opacity="1" style="transform:matrix(1, 0, 0, 1, -191.314, 0);animation-play-state:paused" ></path>
<path d="M1252 154.5 L406.50509250716425 154.5 A15.5 15.5 0 0 0 406.50509250716425 186.5 L1252 186.5" fill="#fff" transform="matrix(1,0,0,1,-25.312536239624023,0)" style="transform:matrix(1, 0, 0, 1, -25.3125, 0);animation-play-state:paused" ></path>
<path d="M500.2731430922807 154.5 L514.4974049756415 154.5 A15.5 15.5 0 0 1 514.4974049756415 186.5 L500.2731430922807 186.5 A15.5 15.5 0 0 1 500.2731430922807 154.5" fill="#fff" transform="matrix(1,0,0,1,0,0)" opacity="0.737327" style="transform:matrix(1, 0, 0, 1, 0, 0);opacity:0.737327;animation-play-state:paused" ></path>
<path d="M1252 185.5 L436.0084578337394 185.5 A15.5 15.5 0 0 1 436.0084578337394 217.5 L1252 217.5" fill="#fff" transform="matrix(1,0,0,1,26.142620086669922,0)" style="transform:matrix(1, 0, 0, 1, 26.1426, 0);animation-play-state:paused" ></path>
<path d="M1000.9239364442545 185.5 L1018.8478728885091 185.5 A15.5 15.5 0 0 1 1018.8478728885091 217.5 L1000.9239364442545 217.5 A15.5 15.5 0 0 1 1000.9239364442545 185.5" fill="#000" transform="matrix(1,0,0,1,-189.5050048828125,0)" opacity="1" style="transform:matrix(1, 0, 0, 1, -189.505, 0);animation-play-state:paused" ></path>
<path d="M1252 216.5 L373.44799797143116 216.5 A15.5 15.5 0 0 0 373.44799797143116 248.5 L1252 248.5" fill="#fff" transform="matrix(1,0,0,1,-3.907329559326172,0)" style="transform:matrix(1, 0, 0, 1, -3.90733, 0);animation-play-state:paused" ></path>
<path d="M524.1099971321423 216.5 L538.4146691888138 216.5 A15.5 15.5 0 0 1 538.4146691888138 248.5 L524.1099971321423 248.5 A15.5 15.5 0 0 1 524.1099971321423 216.5" fill="#fff" transform="matrix(1,0,0,1,0,0)" opacity="0.460829" style="transform:matrix(1, 0, 0, 1, 0, 0);opacity:0.460829;animation-play-state:paused" ></path>
<path d="M1252 247.5 L427.4146393119836 247.5 A15.5 15.5 0 0 1 427.4146393119836 279.5 L1252 279.5" fill="#fff" transform="matrix(1,0,0,1,7.09840202331543,0)" style="transform:matrix(1, 0, 0, 1, 7.0984, 0);animation-play-state:paused" ></path>
<path d="M1000.3187607689704 247.5 L1017.6375215379408 247.5 A15.5 15.5 0 0 1 1017.6375215379408 279.5 L1000.3187607689704 279.5 A15.5 15.5 0 0 1 1000.3187607689704 247.5" fill="#000" transform="matrix(1,0,0,1,-490.406005859375,0)" opacity="0.645161" style="transform:matrix(1, 0, 0, 1, -490.406, 0);opacity:0.645161;animation-play-state:paused" ></path>
<path d="M1252 278.5 L382.27440197104784 278.5 A15.5 15.5 0 0 0 382.27440197104784 310.5 L1252 310.5" fill="#fff" transform="matrix(1,0,0,1,-22.323938369750977,0)" style="transform:matrix(1, 0, 0, 1, -22.3239, 0);animation-play-state:paused" ></path>
<path d="M523.5428512295558 278.5 L538.4118218109451 278.5 A15.5 15.5 0 0 1 538.4118218109451 310.5 L523.5428512295558 310.5 A15.5 15.5 0 0 1 523.5428512295558 278.5" fill="#fff" transform="matrix(1,0,0,1,0,0)" opacity="0.184332" style="transform:matrix(1, 0, 0, 1, 0, 0);opacity:0.184332;animation-play-state:paused" ></path>
<path d="M1252 309.5 L440.186273361516 309.5 A15.5 15.5 0 0 1 440.186273361516 341.5 L1252 341.5" fill="#fff" transform="matrix(1,0,0,1,38.74184799194336,0)" style="transform:matrix(1, 0, 0, 1, 38.7418, 0);animation-play-state:paused" ></path>
<path d="M1004.4805863876181 309.5 L1025.9611727752363 309.5 A15.5 15.5 0 0 1 1025.9611727752363 341.5 L1004.4805863876181 341.5 A15.5 15.5 0 0 1 1004.4805863876181 309.5" fill="#000" transform="matrix(1,0,0,1,-791.8184814453125,0)" opacity="0.0921659" style="transform:matrix(1, 0, 0, 1, -791.818, 0);opacity:0.0921659;animation-play-state:paused" ></path>
<path d="M1252 340.5 L425.3986783443404 340.5 A15.5 15.5 0 0 0 425.3986783443404 372.5 L1252 372.5" fill="#fff" transform="matrix(1,0,0,1,-27.35307502746582,0)" style="transform:matrix(1, 0, 0, 1, -27.3531, 0);animation-play-state:paused" ></path>
<path d="M496.02010755569745 340.5 L531.7854036051294 340.5 A15.5 15.5 0 0 1 531.7854036051294 372.5 L496.02010755569745 372.5 A15.5 15.5 0 0 1 496.02010755569745 340.5" fill="#fff" transform="matrix(1,0,0,1,0,0)" opacity="1" style="transform:matrix(1, 0, 0, 1, 0, 0);animation-play-state:paused" ></path>
<path d="M1252 371.5 L446.04766377827883 371.5 A15.5 15.5 0 0 1 446.04766377827883 403.5 L1252 403.5" fill="#fff" transform="matrix(1,0,0,1,0.058135986328125,0)" style="transform:matrix(1, 0, 0, 1, 0.058136, 0);animation-play-state:paused" ></path>
<path d="M1012.5585992294949 371.5 L1042.1171984589898 371.5 A15.5 15.5 0 0 1 1042.1171984589898 403.5 L1012.5585992294949 403.5 A15.5 15.5 0 0 1 1012.5585992294949 371.5" fill="#000" transform="matrix(1,0,0,1,-344.771728515625,0)" opacity="0.967742" style="transform:matrix(1, 0, 0, 1, -344.772, 0);opacity:0.967742;animation-play-state:paused" ></path>
<path d="M1252 402.5 L410.1355221710053 402.5 A15.5 15.5 0 0 0 410.1355221710053 434.5 L1252 434.5" fill="#fff" transform="matrix(1,0,0,1,-16.1070613861084,0)" style="transform:matrix(1, 0, 0, 1, -16.1071, 0);animation-play-state:paused" ></path>
<path d="M523.4027018307438 402.5 L537.9672054924179 402.5 A15.5 15.5 0 0 1 537.9672054924179 434.5 L523.4027018307438 434.5 A15.5 15.5 0 0 1 523.4027018307438 402.5" fill="#fff" transform="matrix(1,0,0,1,0,0)" opacity="1" style="transform:matrix(1, 0, 0, 1, 0, 0);animation-play-state:paused" ></path>
<path d="M1252 433.5 L432.7025397732673 433.5 A15.5 15.5 0 0 1 432.7025397732673 465.5 L1252 465.5" fill="#fff" transform="matrix(1,0,0,1,11.311210632324219,0)" style="transform:matrix(1, 0, 0, 1, 11.3112, 0);animation-play-state:paused" ></path>
<path d="M1022.3147106934542 433.5 L1061.6294213869085 433.5 A15.5 15.5 0 0 1 1061.6294213869085 465.5 L1022.3147106934542 465.5 A15.5 15.5 0 0 1 1022.3147106934542 433.5" fill="#000" transform="matrix(1,0,0,1,-51.49898910522461,0)" opacity="1" style="transform:matrix(1, 0, 0, 1, -51.499, 0);animation-play-state:paused" ></path>
<path d="M1252 464.5 L404.3763540150634 464.5 A15.5 15.5 0 0 0 404.3763540150634 496.5 L1252 496.5" fill="#fff" transform="matrix(1,0,0,1,-0.39461517333984375,0)" style="transform:matrix(1, 0, 0, 1, -0.394615, 0);animation-play-state:paused" ></path>
<path d="M538.6370881723301 464.5 L576.8357915802412 464.5 A15.5 15.5 0 0 1 576.8357915802412 496.5 L538.6370881723301 496.5 A15.5 15.5 0 0 1 538.6370881723301 464.5" fill="#fff" transform="matrix(1,0,0,1,0,0)" opacity="0.78341" style="transform:matrix(1, 0, 0, 1, 0, 0);opacity:0.78341;animation-play-state:paused" ></path>
<path d="M1252 495.5 L493.78175391145425 495.5 A15.5 15.5 0 0 1 493.78175391145425 527.5 L1252 527.5" fill="#fff" transform="matrix(1,0,0,1,3.7424440383911133,0)" style="transform:matrix(1, 0, 0, 1, 3.74244, 0);animation-play-state:paused" ></path>
<path d="M1015.4325696595371 495.5 L1047.8651393190742 495.5 A15.5 15.5 0 0 1 1047.8651393190742 527.5 L1015.4325696595371 527.5 A15.5 15.5 0 0 1 1015.4325696595371 495.5" fill="#000" transform="matrix(1,0,0,1,-639.921142578125,0)" opacity="0.645161" style="transform:matrix(1, 0, 0, 1, -639.921, 0);opacity:0.645161;animation-play-state:paused" ></path>
<path d="M1252 526.5 L443.6655652467845 526.5 A15.5 15.5 0 0 0 443.6655652467845 558.5 L1252 558.5" fill="#fff" transform="matrix(1,0,0,1,-10.65676498413086,0)" style="transform:matrix(1, 0, 0, 1, -10.6568, 0);animation-play-state:paused" ></path>
<path d="M532.5358496439059 526.5 L566.3090227432815 526.5 A15.5 15.5 0 0 1 566.3090227432815 558.5 L532.5358496439059 558.5 A15.5 15.5 0 0 1 532.5358496439059 526.5" fill="#fff" transform="matrix(1,0,0,1,0,0)" opacity="0.506912" style="transform:matrix(1, 0, 0, 1, 0, 0);opacity:0.506912;animation-play-state:paused" ></path>
<path d="M1252 557.5 L483.42158248027744 557.5 A15.5 15.5 0 0 1 483.42158248027744 589.5 L1252 589.5" fill="#fff" transform="matrix(1,0,0,1,22.043291091918945,0)" style="transform:matrix(1, 0, 0, 1, 22.0433, 0);animation-play-state:paused" ></path>
<path d="M1000.766309691373 557.5 L1018.5326193827459 557.5 A15.5 15.5 0 0 1 1018.5326193827459 589.5 L1000.766309691373 589.5 A15.5 15.5 0 0 1 1000.766309691373 557.5" fill="#000" transform="matrix(1,0,0,1,-450.5793151855469,0)" opacity="0.737327" style="transform:matrix(1, 0, 0, 1, -450.579, 0);opacity:0.737327;animation-play-state:paused" ></path>
<path d="M1252 588.5 L461.72484413778056 588.5 A15.5 15.5 0 0 0 461.72484413778056 620.5 L1252 620.5" fill="#fff" transform="matrix(1,0,0,1,-35.21685028076172,0)" style="transform:matrix(1, 0, 0, 1, -35.2169, 0);animation-play-state:paused" ></path>
<path d="M539.9730933516734 588.5 L567.4308555263582 588.5 A15.5 15.5 0 0 1 567.4308555263582 620.5 L539.9730933516734 620.5 A15.5 15.5 0 0 1 539.9730933516734 588.5" fill="#fff" transform="matrix(1,0,0,1,0,0)" opacity="0.460829" style="transform:matrix(1, 0, 0, 1, 0, 0);opacity:0.460829;animation-play-state:paused" ></path>
<path d="M1252 619.5 L487.2496706207322 619.5 A15.5 15.5 0 0 1 487.2496706207322 651.5 L1252 651.5" fill="#fff" transform="matrix(1,0,0,1,36.87275695800781,0)" style="transform:matrix(1, 0, 0, 1, 36.8728, 0);animation-play-state:paused" ></path>
<path d="M1003.4032453855853 619.5 L1023.8064907711705 619.5 A15.5 15.5 0 0 1 1023.8064907711705 651.5 L1003.4032453855853 651.5 A15.5 15.5 0 0 1 1003.4032453855853 619.5" fill="#000" transform="matrix(1,0,0,1,-932.083251953125,0)" opacity="0.276498" style="transform:matrix(1, 0, 0, 1, -932.083, 0);opacity:0.276498;animation-play-state:paused" ></path>
<path d="M1252 650.5 L437.1700425529764 650.5 A15.5 15.5 0 0 0 437.1700425529764 682.5 L1252 682.5" fill="#fff" transform="matrix(1,0,0,1,-29.891305923461914,0)" style="transform:matrix(1, 0, 0, 1, -29.8913, 0);animation-play-state:paused" ></path>
<path d="M556.7432618676207 650.5 L570.4301309017254 650.5 A15.5 15.5 0 0 1 570.4301309017254 682.5 L556.7432618676207 682.5 A15.5 15.5 0 0 1 556.7432618676207 650.5" fill="#fff" transform="matrix(1,0,0,1,0,0)" opacity="1" style="transform:matrix(1, 0, 0, 1, 0, 0);animation-play-state:paused" ></path>
<path d="M1252 681.5 L468.37131751591096 681.5 A15.5 15.5 0 0 1 468.37131751591096 713.5 L1252 713.5" fill="#fff" transform="matrix(1,0,0,1,3.5716934204101562,0)" style="transform:matrix(1, 0, 0, 1, 3.57169, 0);animation-play-state:paused" ></path>
<path d="M1000.9931656617802 681.5 L1018.9863313235603 681.5 A15.5 15.5 0 0 1 1018.9863313235603 713.5 L1000.9931656617802 713.5 A15.5 15.5 0 0 1 1000.9931656617802 681.5" fill="#000" transform="matrix(1,0,0,1,-118.73821258544922,0)" opacity="1" style="transform:matrix(1, 0, 0, 1, -118.738, 0);animation-play-state:paused" ></path>
<path d="M1252 712.5 L459.56418935423227 712.5 A15.5 15.5 0 0 0 459.56418935423227 744.5 L1252 744.5" fill="#fff" transform="matrix(1,0,0,1,-17.380409240722656,0)" style="transform:matrix(1, 0, 0, 1, -17.3804, 0);animation-play-state:paused" ></path>
<path d="M577.3856172055989 712.5 L604.2805915813831 712.5 A15.5 15.5 0 0 1 604.2805915813831 744.5 L577.3856172055989 744.5 A15.5 15.5 0 0 1 577.3856172055989 712.5" fill="#fff" transform="matrix(1,0,0,1,0,0)" opacity="1" style="transform:matrix(1, 0, 0, 1, 0, 0);animation-play-state:paused" ></path>
<path d="M1252 743.5 L503.26706240985294 743.5 A15.5 15.5 0 0 1 503.26706240985294 775.5 L1252 775.5" fill="#fff" transform="matrix(1,0,0,1,6.660818099975586,0)" style="transform:matrix(1, 0, 0, 1, 6.66082, 0);animation-play-state:paused" ></path>
<path d="M997.913615022116 743.5 L1012.827230044232 743.5 A15.5 15.5 0 0 1 1012.827230044232 775.5 L997.913615022116 775.5 A15.5 15.5 0 0 1 997.913615022116 743.5" fill="#000" transform="matrix(1,0,0,1,-278.4425964355469,0)" opacity="0.967742" style="transform:matrix(1, 0, 0, 1, -278.443, 0);opacity:0.967742;animation-play-state:paused" ></path>
<path d="M1252 774.5 L445.01066405394846 774.5 A15.5 15.5 0 0 0 445.01066405394846 806.5 L1252 806.5" fill="#fff" transform="matrix(1,0,0,1,-37.27119445800781,0)" style="transform:matrix(1, 0, 0, 1, -37.2712, 0);animation-play-state:paused" ></path>
<path d="M567.6389030236892 774.5 L586.5632761958132 774.5 A15.5 15.5 0 0 1 586.5632761958132 806.5 L567.6389030236892 806.5 A15.5 15.5 0 0 1 567.6389030236892 774.5" fill="#fff" transform="matrix(1,0,0,1,0,0)" opacity="0.829493" style="transform:matrix(1, 0, 0, 1, 0, 0);opacity:0.829493;animation-play-state:paused" ></path>
<path d="M1252 805.5 L484.1774959869942 805.5 A15.5 15.5 0 0 1 484.1774959869942 837.5 L1252 837.5" fill="#fff" transform="matrix(1,0,0,1,0.04229564964771271,0)" style="transform:matrix(1, 0, 0, 1, 0.0422956, 0);animation-play-state:paused" ></path>
<path d="M998.030970260752 805.5 L1013.0619405215041 805.5 A15.5 15.5 0 0 1 1013.0619405215041 837.5 L998.030970260752 837.5 A15.5 15.5 0 0 1 998.030970260752 805.5" fill="#000" transform="matrix(1,0,0,1,-607.7638549804688,0)" opacity="0.645161" style="transform:matrix(1, 0, 0, 1, -607.764, 0);opacity:0.645161;animation-play-state:paused" ></path>
<path d="M1252 836.5 L441.0983026230852 836.5 A15.5 15.5 0 0 0 441.0983026230852 868.5 L1252 868.5" fill="#fff" transform="matrix(1,0,0,1,-18.140987396240234,0)" style="transform:matrix(1, 0, 0, 1, -18.141, 0);animation-play-state:paused" ></path>
<path d="M573.7007337648981 836.5 L611.2080022873233 836.5 A15.5 15.5 0 0 1 611.2080022873233 868.5 L573.7007337648981 868.5 A15.5 15.5 0 0 1 573.7007337648981 836.5" fill="#fff" transform="matrix(1,0,0,1,0,0)" opacity="0.552995" style="transform:matrix(1, 0, 0, 1, 0, 0);opacity:0.552995;animation-play-state:paused" ></path>
<path d="M1252 867.5 L445.0337206643985 867.5 A15.5 15.5 0 0 1 445.0337206643985 899.5 L1252 899.5" fill="#fff" transform="matrix(1,0,0,1,1.7332420349121094,0)" style="transform:matrix(1, 0, 0, 1, 1.73324, 0);animation-play-state:paused" ></path>
<path d="M1005.6215233688462 867.5 L1028.2430467376923 867.5 A15.5 15.5 0 0 1 1028.2430467376923 899.5 L1005.6215233688462 899.5 A15.5 15.5 0 0 1 1005.6215233688462 867.5" fill="#000" transform="matrix(1,0,0,1,-105.03488159179688,0)" opacity="1" style="transform:matrix(1, 0, 0, 1, -105.035, 0);animation-play-state:paused" ></path>
<path d="M1252 898.5 L415.3526562837475 898.5 A15.5 15.5 0 0 0 415.3526562837475 930.5 L1252 930.5" fill="#fff" transform="matrix(1,0,0,1,-1.8879165649414062,0)" style="transform:matrix(1, 0, 0, 1, -1.88792, 0);animation-play-state:paused" ></path>
<path d="M544.9000366009514 898.5 L569.5594175773492 898.5 A15.5 15.5 0 0 1 569.5594175773492 930.5 L544.9000366009514 930.5 A15.5 15.5 0 0 1 544.9000366009514 898.5" fill="#fff" transform="matrix(1,0,0,1,0,0)" opacity="0.276498" style="transform:matrix(1, 0, 0, 1, 0, 0);opacity:0.276498;animation-play-state:paused" ></path>
<path d="M1252 929.5 L458.60219355944497 929.5 A15.5 15.5 0 0 1 458.60219355944497 961.5 L1252 961.5" fill="#fff" transform="matrix(1,0,0,1,11.000798225402832,0)" style="transform:matrix(1, 0, 0, 1, 11.0008, 0);animation-play-state:paused" ></path>
<path d="M1010.7076286899496 929.5 L1038.4152573798992 929.5 A15.5 15.5 0 0 1 1038.4152573798992 961.5 L1010.7076286899496 961.5 A15.5 15.5 0 0 1 1010.7076286899496 929.5" fill="#000" transform="matrix(1,0,0,1,-778.2030029296875,0)" opacity="0.138249" style="transform:matrix(1, 0, 0, 1, -778.203, 0);opacity:0.138249;animation-play-state:paused" ></path></g></mask></defs>


<rect x="0" y="0" width="952" height="938" fill="url(#ldbk-photon-frjq39ay3as-lg)" mask="url(#ldbk-photon-frjq39ay3as-mask)" style="animation-play-state:paused" ></rect></g></svg>