<svg height="512pt" viewBox="0 0 512 512" width="512pt" xmlns="http://www.w3.org/2000/svg"><path d="m196 0-60 160 136-70h30v422h90v-106l60-120-60-120v-166zm0 0" fill="#18e0ff"/><path d="m0 0v512h90l106-422v-90zm0 0" fill="#65eaff"/><path d="m512 286-120-120v60h-150v120h150v60zm0 0" fill="#ff3cad"/><path d="m272 90h-76l-60 211 60 211h76zm0 0" fill="#0a77e8"/><path d="m90 90h106v422h-106zm0 0" fill="#0f9af0"/><path d="m212 271h-15l-10 15 10 15h15zm0 0" fill="#b2f5ff"/><path d="m182 271h15v30h-15zm0 0" fill="#fff"/></svg>